<svg width="27" height="31" viewBox="0 0 27 31" fill="none" xmlns="http://www.w3.org/2000/svg">
<path fill-rule="evenodd" clip-rule="evenodd" d="M18.0106 2.39517C18.1428 1.21408 17.3055 0.147568 16.1244 0.0153565C14.9433 -0.12567 13.8768 0.720487 13.7446 1.90158C13.5859 3.25014 13.8063 4.86313 14.0883 6.52018C14.8728 6.75817 15.6308 7.10192 16.3359 7.50737C17.094 5.7181 17.8344 3.94646 18.0106 2.39517ZM26.3047 7.57788C25.8376 6.48493 24.5683 5.99134 23.4754 6.45849C22.0387 7.08429 20.5491 8.30945 19.0507 9.56987C19.6148 10.1252 20.1437 10.751 20.5932 11.4297C22.2943 11.2181 23.9249 10.9625 25.1853 10.416C26.2783 9.93125 26.7807 8.66202 26.3047 7.57788ZM22.6821 1.81344C21.7302 1.10831 20.3816 1.30222 19.6765 2.25415C18.6012 3.69966 17.8784 5.85912 17.094 7.9657C17.3584 8.14198 17.6052 8.31827 17.8432 8.50336C18.0194 8.64439 18.2045 8.79423 18.3896 8.94407C20.1877 7.58669 22.0563 6.26457 23.1316 4.81906C23.8368 3.86713 23.634 2.51857 22.6821 1.81344Z" fill="#53B175"/>
<path d="M18.5921 19.0717C17.9311 19.7857 17.226 20.4467 16.4768 21.0902C15.4279 21.998 14.3614 22.8794 13.2772 23.7256C12.1138 23.0117 11.2764 22.6503 11.1354 22.8354C11.012 23.0028 11.4968 23.6198 12.3694 24.4219C9.44308 26.599 6.34932 28.5205 3.02639 30.0982C2.50635 30.345 1.95988 30.5213 1.42222 30.7152C1.28119 30.7681 1.13135 30.7681 1.06965 30.7769C0.223495 30.8739 -0.0321152 30.6447 0.00314137 29.869C0.108911 27.454 0.858112 25.1887 1.63376 22.9323C1.84529 22.3153 2.06565 21.6983 2.29482 21.0814C3.46709 21.7953 4.30444 22.1655 4.44546 21.9804C4.5953 21.7777 3.89017 20.9668 2.70908 19.9532C3.55524 17.7672 4.49835 15.6166 5.60893 13.5541C7.83009 15.2023 9.80445 16.2865 10.0248 15.9868C10.2452 15.6871 8.61455 14.0918 6.36694 12.4259L6.26999 12.3554C6.65781 11.6943 7.06326 11.0333 7.49515 10.3898C8.03281 9.57892 8.69387 8.83853 9.34612 8.11577C10.2187 7.15503 11.3469 6.82891 12.6073 7.11096C16.6442 8.01 19.4471 10.3281 20.7692 14.3033C21.0337 15.1142 20.7957 15.9075 20.3814 16.639C20.0994 17.1326 19.7909 17.5998 19.4471 18.0405C17.3141 16.4804 15.4631 15.4756 15.2516 15.7576C15.0489 16.0397 16.5208 17.494 18.5921 19.0717Z" fill="#F3603F"/>
</svg>
