<svg width="23" height="21" viewBox="0 0 23 21" fill="none" xmlns="http://www.w3.org/2000/svg">
<path d="M8.9857 20.518C8.33715 20.518 7.71516 20.2604 7.25657 19.8018C6.79797 19.3432 6.54034 18.7212 6.54034 18.0726C6.54034 17.4241 6.79797 16.8021 7.25657 16.3435C7.71516 15.8849 8.33715 15.6273 8.9857 15.6273C9.63425 15.6273 10.2562 15.8849 10.7148 16.3435C11.1734 16.8021 11.4311 17.4241 11.4311 18.0726C11.4311 18.7212 11.1734 19.3432 10.7148 19.8018C10.2562 20.2604 9.63425 20.518 8.9857 20.518ZM17.5445 20.518C16.8959 20.518 16.2739 20.2604 15.8153 19.8018C15.3567 19.3432 15.0991 18.7212 15.0991 18.0726C15.0991 17.4241 15.3567 16.8021 15.8153 16.3435C16.2739 15.8849 16.8959 15.6273 17.5445 15.6273C18.193 15.6273 18.815 15.8849 19.2736 16.3435C19.7322 16.8021 19.9898 17.4241 19.9898 18.0726C19.9898 18.7212 19.7322 19.3432 19.2736 19.8018C18.815 20.2604 18.193 20.518 17.5445 20.518ZM1.60315 3.3063C1.29792 3.29645 1.00848 3.16828 0.796051 2.94888C0.583619 2.72949 0.464844 2.43607 0.464844 2.13069C0.464844 1.8253 0.583619 1.53188 0.796051 1.31249C1.00848 1.09309 1.29792 0.964923 1.60315 0.955078L3.01045 0.955078C4.11331 0.955078 5.067 1.72048 5.30665 2.79644L6.83867 9.69481C7.07832 10.7708 8.03201 11.5362 9.13487 11.5362H18.3197L20.0828 4.48129H8.6568C8.35444 4.4675 8.06904 4.33768 7.85996 4.11883C7.65087 3.89999 7.53419 3.60897 7.53419 3.3063C7.53419 3.00363 7.65087 2.7126 7.85996 2.49376C8.06904 2.27492 8.35444 2.1451 8.6568 2.1313H20.0828C20.4402 2.13119 20.7929 2.21258 21.1142 2.36927C21.4355 2.52597 21.7168 2.75384 21.9367 3.03557C22.1567 3.31731 22.3095 3.64548 22.3836 3.99515C22.4577 4.34482 22.4511 4.70678 22.3643 5.05351L20.6012 12.1059C20.4741 12.6148 20.1805 13.0666 19.7671 13.3894C19.3536 13.7122 18.8442 13.8875 18.3197 13.8874H9.13487C8.06477 13.8875 7.02662 13.5227 6.19189 12.8531C5.35715 12.1836 4.77575 11.2493 4.5437 10.2047L3.01045 3.3063H1.60315Z" fill="#181725"/>
</svg>
