<svg width="16" height="9" viewBox="0 0 16 9" fill="none" xmlns="http://www.w3.org/2000/svg">
<path d="M13.2141 0.629029L13.2141 0.629006L13.2123 0.630862L8.98072 5.02252L8.98027 5.02299L8.0734 5.97666L2.93536 0.630952C2.82346 0.514532 2.69711 0.417924 2.55567 0.356608C2.4189 0.29732 2.26854 0.260744 2.11589 0.260744C1.95992 0.260744 1.80675 0.283729 1.6624 0.357995C1.52932 0.416052 1.39179 0.498875 1.2859 0.609049L1.2858 0.608953L1.28237 0.612923C1.18358 0.72712 1.09184 0.857109 1.03359 1.00258C0.97488 1.14916 0.952734 1.31595 0.952734 1.46687C0.952734 1.62406 0.987592 1.77838 1.04315 1.92866L1.04312 1.92868L1.04411 1.93117C1.10237 2.07663 1.19449 2.20769 1.29643 2.31374L7.25432 8.51244C7.35931 8.62167 7.48652 8.7055 7.62349 8.76488L7.62347 8.76491L7.62611 8.76597C7.77122 8.82404 7.92089 8.86074 8.07379 8.86074C8.22643 8.86074 8.3768 8.82417 8.51356 8.76488C8.65053 8.7055 8.77774 8.62167 8.88273 8.51244L14.8406 2.31374L14.8406 2.31377L14.8425 2.31177C15.0506 2.08321 15.1527 1.78454 15.1527 1.47782C15.1527 1.16646 15.0264 0.868046 14.8196 0.652856C14.6021 0.426583 14.3245 0.305086 14.0231 0.304553C13.7203 0.293019 13.4317 0.414606 13.2141 0.629029Z" fill="#181725" stroke="#181725" stroke-width="0.2"/>
</svg>
