<svg width="29" height="19" viewBox="0 0 29 19" fill="none" xmlns="http://www.w3.org/2000/svg">
<path d="M18.3247 14.2373C19.1127 14.2373 19.8929 14.0821 20.6208 13.7806C21.3488 13.4791 22.0102 13.0371 22.5674 12.48C23.1245 11.9228 23.5665 11.2614 23.868 10.5334C24.1695 9.80547 24.3247 9.02525 24.3247 8.23732C24.3247 7.44939 24.1695 6.66917 23.868 5.94122C23.5665 5.21327 23.1245 4.55183 22.5674 3.99468C22.0102 3.43753 21.3488 2.99557 20.6208 2.69404C19.8929 2.39251 19.1127 2.23732 18.3247 2.23732C16.7334 2.23732 15.2073 2.86946 14.0821 3.99468C12.9569 5.1199 12.3247 6.64602 12.3247 8.23732C12.3247 9.82862 12.9569 11.3547 14.0821 12.48C15.2073 13.6052 16.7334 14.2373 18.3247 14.2373ZM24.6447 13.1433L28.2247 16.7233C28.3202 16.8156 28.3963 16.926 28.4486 17.0481C28.5009 17.1701 28.5284 17.3014 28.5295 17.4341C28.5305 17.5669 28.5051 17.6986 28.4548 17.8214C28.4044 17.9443 28.3301 18.0559 28.2361 18.1497C28.1421 18.2435 28.0304 18.3177 27.9075 18.3679C27.7846 18.4181 27.6529 18.4433 27.5201 18.4421C27.3873 18.4408 27.2561 18.4131 27.1342 18.3606C27.0122 18.3082 26.9019 18.2319 26.8097 18.1363L23.2297 14.5563C21.6222 15.8042 19.5995 16.3925 17.5735 16.2015C15.5474 16.0105 13.6703 15.0546 12.3243 13.5284C10.9782 12.0021 10.2644 10.0203 10.3281 7.98624C10.3919 5.95222 11.2284 4.01894 12.6674 2.57997C14.1063 1.14099 16.0396 0.304486 18.0736 0.240745C20.1077 0.177004 22.0895 0.890816 23.6158 2.23687C25.142 3.58292 26.0979 5.46003 26.2889 7.48607C26.4799 9.51211 25.8916 11.5348 24.6437 13.1423L24.6447 13.1433Z" fill="#181725"/>
<rect x="0.179688" y="0.236816" width="8.85499" height="2.39923" rx="1.19961" fill="#181725"/>
<rect x="0.179688" y="7.6748" width="6.46414" height="2.39923" rx="1.19961" fill="#181725"/>
<rect x="0.179688" y="15.1138" width="8.85499" height="2.39923" rx="1.19961" fill="#181725"/>
</svg>
