<svg width="23" height="20" viewBox="0 0 23 20" fill="none" xmlns="http://www.w3.org/2000/svg">
<path d="M3.7372 9.00969L11.5613 16.8338L19.3854 9.00969C20.0771 8.31794 20.4658 7.37973 20.4658 6.40145C20.4658 5.42317 20.0771 4.48496 19.3854 3.79321C19.0429 3.4507 18.6362 3.179 18.1887 2.99363C17.7412 2.80826 17.2616 2.71285 16.7772 2.71285C15.7989 2.71285 14.8607 3.10147 14.1689 3.79321L11.5613 6.40084L8.95367 3.79444C8.26016 3.11198 7.32507 2.7312 6.35209 2.73504C5.3791 2.73889 4.44705 3.12705 3.75896 3.81498C3.07087 4.50291 2.68249 5.43487 2.67841 6.40786C2.67433 7.38084 3.05489 8.31602 3.7372 9.00969ZM10.6921 2.05357L11.5613 2.92278L12.4305 2.05357C13.0004 1.47865 13.6783 1.02196 14.4251 0.709714C15.172 0.397469 15.9732 0.23582 16.7827 0.234047C17.5923 0.232274 18.3942 0.390413 19.1424 0.699384C19.8906 1.00836 20.5705 1.46207 21.1429 2.03449C21.7153 2.60691 22.169 3.28675 22.478 4.03499C22.787 4.78323 22.9451 5.58513 22.9433 6.39465C22.9416 7.20417 22.7799 8.00536 22.4677 8.75224C22.1554 9.49912 21.6987 10.177 21.1238 10.7469L12.4317 19.4402C12.3176 19.5545 12.182 19.6452 12.0327 19.707C11.8835 19.7689 11.7235 19.8008 11.5619 19.8008C11.4003 19.8008 11.2404 19.7689 11.0911 19.707C10.9419 19.6452 10.8063 19.5545 10.6921 19.4402L1.99878 10.7481C1.41604 10.18 0.951904 9.50191 0.633287 8.75306C0.31467 8.00421 0.147918 7.19955 0.142704 6.38576C0.13749 5.57196 0.293918 4.76523 0.602913 4.01237C0.911908 3.2595 1.36732 2.57548 1.94273 1.99999C2.51814 1.42449 3.2021 0.968985 3.95492 0.659884C4.70775 0.350782 5.51445 0.19424 6.32825 0.199339C7.14205 0.204438 7.94673 0.371077 8.69562 0.689588C9.44451 1.0081 10.1227 1.47214 10.6909 2.0548L10.6921 2.05357Z" fill="#181725"/>
</svg>
