<svg width="16" height="19" viewBox="0 0 16 19" fill="none" xmlns="http://www.w3.org/2000/svg">
<path fill-rule="evenodd" clip-rule="evenodd" d="M11.0195 1.30771C10.1043 0.912527 9.11931 0.704559 8.12252 0.696063C7.11902 0.680524 6.12285 0.869348 5.19464 1.25104C4.26644 1.63273 3.4256 2.19931 2.72333 2.91629C1.29744 4.36029 0.490369 6.3031 0.473411 8.33238C0.456453 10.3617 1.23094 12.3177 2.6325 13.7853L7.23443 18.5487C7.32705 18.6459 7.43813 18.7236 7.56116 18.7774C7.6842 18.8311 7.81671 18.8597 7.95095 18.8616C8.085 18.8646 8.21817 18.8392 8.34168 18.787C8.46518 18.7348 8.57623 18.657 8.66748 18.5588L13.3501 13.8661C14.7774 12.4234 15.5863 10.4813 15.6051 8.45201C15.624 6.42272 14.8513 4.46596 13.4511 2.99703C12.7614 2.27728 11.9346 1.70289 11.0195 1.30771ZM7.96076 11.0057C9.3098 11.0057 10.4034 9.91209 10.4034 8.56305C10.4034 7.21401 9.3098 6.1204 7.96076 6.1204C6.61173 6.1204 5.51811 7.21402 5.51811 8.56305C5.51811 9.91209 6.61172 11.0057 7.96076 11.0057Z" fill="#4C4F4D"/>
</svg>
