<svg width="25" height="25" viewBox="0 0 25 25" fill="none" xmlns="http://www.w3.org/2000/svg">
<path d="M8.6691 12.5881C8.80993 12.5356 8.96137 12.5083 9.11448 12.5078C9.26759 12.5074 9.41926 12.5337 9.56052 12.5853C9.70177 12.6368 9.82976 12.7126 9.9369 12.8081C10.044 12.9036 10.1282 13.0168 10.1843 13.1412C10.2404 13.2656 10.2674 13.3985 10.2637 13.5321C10.26 13.6657 10.2257 13.7974 10.1627 13.9192C10.0997 14.041 10.0094 14.1506 9.89704 14.2415C9.78471 14.3323 9.65267 14.4025 9.50871 14.4481C8.74303 14.7114 8.08587 15.1699 7.62274 15.7638C7.15961 16.3577 6.91195 17.0596 6.91198 17.7781V19.5181C6.91198 19.7833 7.03267 20.0376 7.24748 20.2252C7.46229 20.4127 7.75364 20.5181 8.05743 20.5181H17.221C17.5248 20.5181 17.8161 20.4127 18.0309 20.2252C18.2458 20.0376 18.3664 19.7833 18.3664 19.5181V17.8711C18.3666 17.1295 18.1086 16.4055 17.6266 15.7949C17.1447 15.1843 16.4615 14.716 15.6678 14.4521C15.5229 14.4082 15.3896 14.3394 15.2758 14.2497C15.162 14.16 15.07 14.0513 15.0052 13.9299C14.9404 13.8086 14.9041 13.6772 14.8986 13.5434C14.8931 13.4096 14.9184 13.2763 14.973 13.1512C15.0276 13.0261 15.1104 12.9119 15.2165 12.8152C15.3226 12.7186 15.4499 12.6416 15.5907 12.5887C15.7316 12.5358 15.8832 12.5081 16.0365 12.5074C16.1898 12.5066 16.3418 12.5326 16.4833 12.5841C17.7108 12.9922 18.7672 13.7164 19.5126 14.6606C20.258 15.6047 20.6572 16.7244 20.6573 17.8711V19.5181C20.6573 20.3137 20.2953 21.0768 19.6509 21.6394C19.0064 22.202 18.1324 22.5181 17.221 22.5181H8.05743C7.14606 22.5181 6.27201 22.202 5.62757 21.6394C4.98314 21.0768 4.62109 20.3137 4.62109 19.5181V17.7781C4.62125 16.6582 5.00743 15.5643 5.72938 14.6387C6.45134 13.7131 7.47566 12.9985 8.6691 12.5881ZM12.6392 2.51807C13.8544 2.51807 15.0198 2.93949 15.879 3.68964C16.7383 4.43978 17.221 5.4572 17.221 6.51807V8.51807C17.221 9.57893 16.7383 10.5963 15.879 11.3465C15.0198 12.0966 13.8544 12.5181 12.6392 12.5181C11.424 12.5181 10.2587 12.0966 9.3994 11.3465C8.54015 10.5963 8.05743 9.57893 8.05743 8.51807V6.51807C8.05743 5.4572 8.54015 4.43978 9.3994 3.68964C10.2587 2.93949 11.424 2.51807 12.6392 2.51807ZM12.6392 4.51807C12.0316 4.51807 11.4489 4.72878 11.0193 5.10385C10.5897 5.47893 10.3483 5.98763 10.3483 6.51807V8.51807C10.3483 9.0485 10.5897 9.55721 11.0193 9.93228C11.4489 10.3074 12.0316 10.5181 12.6392 10.5181C13.2468 10.5181 13.8295 10.3074 14.2591 9.93228C14.6887 9.55721 14.9301 9.0485 14.9301 8.51807V6.51807C14.9301 5.98763 14.6887 5.47893 14.2591 5.10385C13.8295 4.72878 13.2468 4.51807 12.6392 4.51807Z" fill="#181725"/>
</svg>
