<svg width="19" height="19" viewBox="0 0 19 19" fill="none" xmlns="http://www.w3.org/2000/svg">
<path d="M8.76027 14.5718C9.5482 14.5718 10.3284 14.4166 11.0564 14.1151C11.7843 13.8135 12.4458 13.3716 13.0029 12.8144C13.5601 12.2573 14.002 11.5958 14.3035 10.8679C14.6051 10.1399 14.7603 9.35972 14.7603 8.57179C14.7603 7.78386 14.6051 7.00365 14.3035 6.27569C14.002 5.54774 13.5601 4.8863 13.0029 4.32915C12.4458 3.772 11.7843 3.33004 11.0564 3.02852C10.3284 2.72699 9.5482 2.57179 8.76027 2.57179C7.16897 2.57179 5.64285 3.20393 4.51763 4.32915C3.39241 5.45437 2.76027 6.98049 2.76027 8.57179C2.76027 10.1631 3.39241 11.6892 4.51763 12.8144C5.64285 13.9397 7.16897 14.5718 8.76027 14.5718ZM15.0803 13.4778L18.6603 17.0578C18.7557 17.1501 18.8318 17.2605 18.8841 17.3825C18.9365 17.5046 18.9639 17.6358 18.965 17.7686C18.9661 17.9014 18.9407 18.033 18.8903 18.1559C18.8399 18.2788 18.7656 18.3904 18.6716 18.4842C18.5777 18.578 18.466 18.6522 18.3431 18.7024C18.2201 18.7526 18.0884 18.7778 17.9556 18.7765C17.8229 18.7753 17.6917 18.7476 17.5697 18.6951C17.4477 18.6426 17.3374 18.5664 17.2453 18.4708L13.6653 14.8908C12.0577 16.1386 10.0351 16.727 8.00902 16.536C5.98298 16.345 4.10587 15.3891 2.75982 13.8629C1.41377 12.3366 0.699954 10.3547 0.763695 8.32072C0.827436 6.28669 1.66394 4.35342 3.10292 2.91444C4.54189 1.47546 6.47517 0.638959 8.50919 0.575218C10.5432 0.511477 12.5251 1.22529 14.0513 2.57134C15.5776 3.9174 16.5335 5.79451 16.7245 7.82055C16.9154 9.84659 16.3271 11.8693 15.0793 13.4768L15.0803 13.4778Z" fill="#181B19"/>
</svg>
