<svg width="20" height="20" viewBox="0 0 20 20" fill="none" xmlns="http://www.w3.org/2000/svg">
<path d="M11.5522 5.2672L11.2961 5.01058V5.37317V12.8119C11.2961 13.1218 11.173 13.419 10.9538 13.6381C10.7347 13.8572 10.4375 13.9803 10.1276 13.9803C9.81772 13.9803 9.52052 13.8572 9.30139 13.6381C9.08226 13.419 8.95916 13.1218 8.95916 12.8119V5.37317V5.01081L8.70305 5.26715L7.22514 6.74637C7.22513 6.74639 7.22511 6.7464 7.2251 6.74642C7.00567 6.96566 6.70814 7.08877 6.39795 7.08866C6.08774 7.08855 5.79028 6.96522 5.57101 6.74579C5.35173 6.52636 5.2286 6.22881 5.22871 5.9186C5.22882 5.60839 5.35216 5.31092 5.57159 5.09165L9.3015 1.36438L9.30184 1.36404C9.41006 1.2552 9.53872 1.16883 9.68044 1.10989C9.82216 1.05095 9.97413 1.02061 10.1276 1.02061C10.2811 1.02061 10.4331 1.05095 10.5748 1.10989C10.7165 1.16883 10.8452 1.2552 10.9534 1.36404L10.9537 1.36436L14.6836 5.09289C14.6836 5.0929 14.6836 5.09291 14.6836 5.09291C14.6836 5.09292 14.6836 5.09294 14.6836 5.09295C14.7922 5.20159 14.8783 5.33054 14.937 5.47245C14.9957 5.61437 15.0259 5.76648 15.0259 5.92008C15.0258 6.07368 14.9955 6.22577 14.9367 6.36766C14.8778 6.50955 14.7916 6.63846 14.683 6.74703C14.5743 6.85561 14.4454 6.94172 14.3034 7.00045C14.1615 7.05918 14.0094 7.08938 13.8558 7.08932C13.7022 7.08927 13.5501 7.05896 13.4082 7.00013C13.2663 6.94131 13.1375 6.85513 13.0289 6.7465C13.0289 6.74649 13.0289 6.74647 13.0288 6.74645L11.5522 5.2672ZM3.53534 11.2696H3.38534V11.4196V16.6934V16.8434H3.53534H16.7199H16.8699V16.6934V11.4196V11.2696H16.7199H15.4014C15.0915 11.2696 14.7943 11.1465 14.5752 10.9274C14.3561 10.7082 14.233 10.411 14.233 10.1011C14.233 9.79125 14.3561 9.49405 14.5752 9.27493C14.7943 9.0558 15.0915 8.93269 15.4014 8.93269H16.7199C17.3794 8.93269 18.012 9.19471 18.4784 9.66109C18.9448 10.1275 19.2068 10.76 19.2068 11.4196V16.6934C19.2068 17.353 18.9448 17.9855 18.4784 18.4519C18.012 18.9183 17.3794 19.1803 16.7199 19.1803H3.53534C2.87578 19.1803 2.24322 18.9183 1.77684 18.4519C1.31045 17.9855 1.04844 17.353 1.04844 16.6934V11.4196C1.04844 10.76 1.31045 10.1275 1.77684 9.66109C2.24322 9.19471 2.87578 8.93269 3.53534 8.93269H4.8538C5.16369 8.93269 5.46089 9.0558 5.68002 9.27493C5.89915 9.49405 6.02225 9.79125 6.02225 10.1011C6.02225 10.411 5.89915 10.7082 5.68002 10.9274C5.46089 11.1465 5.16369 11.2696 4.8538 11.2696H3.53534Z" fill="#181725" stroke="white" stroke-width="0.3"/>
</svg>
