<svg width="21" height="21" viewBox="0 0 21 21" fill="none" xmlns="http://www.w3.org/2000/svg">
<path d="M7.75977 7.75407C8.28977 8.22907 8.99177 8.51807 9.75977 8.51807H11.7598C12.4979 8.51909 13.2103 8.24695 13.7598 7.75407H7.75977ZM7.75977 7.75407C7.21031 8.24695 6.4979 8.51909 5.75977 8.51807L7.75977 7.75407ZM6.80977 2.51807V2.46807H6.75977H3.75977C3.48129 2.46807 3.21422 2.57869 3.01731 2.7756C2.82039 2.97252 2.70977 3.23959 2.70977 3.51807V5.51807C2.70977 5.79654 2.82039 6.06362 3.01731 6.26053C3.21422 6.45744 3.48129 6.56807 3.75977 6.56807H5.75977C6.03825 6.56807 6.30532 6.45744 6.50223 6.26053C6.69914 6.06362 6.80977 5.79654 6.80977 5.51807V2.51807ZM3.76977 8.46807H3.71977V8.51807V18.4831V18.5331H3.76977H5.75977H5.80977V18.4831V13.5181C5.80977 13.0009 6.01521 12.5049 6.38091 12.1392C6.74661 11.7735 7.2426 11.5681 7.75977 11.5681H9.75977C10.2769 11.5681 10.7729 11.7735 11.1386 12.1392C11.5043 12.5049 11.7098 13.0009 11.7098 13.5181V18.4831V18.5331H11.7598H17.7728H17.8228V18.4831V8.51807V8.46807H17.7728H15.7598C15.0045 8.46807 14.3143 8.18391 13.7931 7.71683L13.7598 7.68691L13.7264 7.71685C13.1861 8.20148 12.4856 8.46907 11.7598 8.46807H11.7598H9.75977C9.00453 8.46807 8.3143 8.18391 7.79314 7.71683L7.75975 7.68691L7.72638 7.71685C7.18611 8.20148 6.48562 8.46907 5.75984 8.46807H5.75977H3.76977ZM1.76794 7.69519C1.4715 7.42442 1.23347 7.09573 1.06867 6.72925C0.897439 6.34848 0.809186 5.93564 0.809769 5.51814V5.51807V3.51807C0.809769 2.73568 1.12057 1.98533 1.6738 1.4321C2.22704 0.878869 2.97738 0.568066 3.75977 0.568066H17.7598C18.5422 0.568066 19.2925 0.878869 19.8457 1.4321C20.399 1.98533 20.7098 2.73568 20.7098 3.51807V5.51807C20.7098 6.3854 20.3362 7.1661 19.7392 7.70598L19.7228 7.72087V7.74307V18.4831C19.7228 19.0002 19.5173 19.4962 19.1516 19.8619C18.7859 20.2276 18.2899 20.4331 17.7728 20.4331H10.1328V20.4322L10.1235 20.4339C10.0036 20.4566 9.8818 20.468 9.75976 20.4681H7.75977C7.63774 20.468 7.51597 20.4566 7.39606 20.4339L7.39622 20.4331H7.38677H3.77077C3.2536 20.4331 2.75761 20.2276 2.39191 19.8619C2.02621 19.4962 1.82077 19.0002 1.82077 18.4831V7.76307V7.64237L1.76794 7.69519ZM9.80977 13.5181V13.4681H9.75977H7.75977H7.70977V13.5181V18.4831V18.5331H7.75977H9.75977V18.4841H9.80977V18.4831V18.4331V13.5181ZM12.8098 2.51807V2.46807H12.7598H8.75977H8.70977V2.51807V5.51807C8.70977 5.79654 8.82039 6.06362 9.01731 6.26053C9.21422 6.45744 9.48129 6.56807 9.75977 6.56807H11.7598C12.0382 6.56807 12.3053 6.45744 12.5022 6.26053C12.6991 6.06362 12.8098 5.79654 12.8098 5.51807V2.51807ZM14.7598 2.46807H14.7098V2.51807V5.51807C14.7098 5.79654 14.8204 6.06362 15.0173 6.26053C15.2142 6.45744 15.4813 6.56807 15.7598 6.56807H17.7598C18.0382 6.56807 18.3053 6.45744 18.5022 6.26053C18.6991 6.06361 18.8098 5.79654 18.8098 5.51807V3.51807C18.8098 3.23959 18.6991 2.97252 18.5022 2.7756C18.3053 2.57869 18.0382 2.46807 17.7598 2.46807H14.7598ZM14.7598 11.5681H15.7598C16.0117 11.5681 16.2534 11.6682 16.4315 11.8463C16.6097 12.0245 16.7098 12.2661 16.7098 12.5181V15.5181C16.7098 15.77 16.6097 16.0117 16.4315 16.1898C16.2534 16.368 16.0117 16.4681 15.7598 16.4681H14.7598C14.5078 16.4681 14.2662 16.368 14.088 16.1898C13.9099 16.0117 13.8098 15.77 13.8098 15.5181V12.5181C13.8098 12.2661 13.9099 12.0245 14.088 11.8463C14.2662 11.6682 14.5078 11.5681 14.7598 11.5681Z" fill="black" stroke="white" stroke-width="0.1"/>
</svg>
