<svg width="94" height="15" viewBox="0 0 94 15" fill="none" xmlns="http://www.w3.org/2000/svg">
<path d="M8.29854 11.9695L3.75002 14.3613L4.61876 9.29626L0.9375 5.70858L6.02317 4.96953L8.29854 0.361328L10.5732 4.96953L15.6588 5.70858L11.9783 9.29626L12.8478 14.3613L8.29854 11.9695Z" fill="#F3603F"/>
<path d="M27.736 11.9695L23.1875 14.3613L24.0563 9.29626L20.375 5.70858L25.4607 4.96953L27.736 0.361328L30.0107 4.96953L35.0963 5.70858L31.4158 9.29626L32.2853 14.3613L27.736 11.9695Z" fill="#F3603F"/>
<path d="M47.1735 11.9695L42.625 14.3613L43.4938 9.29626L39.8125 5.70858L44.8982 4.96953L47.1735 0.361328L49.4482 4.96953L54.5338 5.70858L50.8533 9.29626L51.7228 14.3613L47.1735 11.9695Z" fill="#F3603F"/>
<path d="M66.611 11.9695L62.0625 14.3613L62.9313 9.29626L59.25 5.70858L64.3357 4.96953L66.611 0.361328L68.8857 4.96953L73.9713 5.70858L70.2908 9.29626L71.1603 14.3613L66.611 11.9695Z" fill="#F3603F"/>
<path d="M86.0485 11.9695L81.5 14.3613L82.3688 9.29626L78.6875 5.70858L83.7732 4.96953L86.0485 0.361328L88.3232 4.96953L93.4088 5.70858L89.7283 9.29626L90.5978 14.3613L86.0485 11.9695Z" fill="#F3603F"/>
</svg>
